<svg width="25" height="26" viewBox="0 0 25 26" fill="none" xmlns="http://www.w3.org/2000/svg">
<path d="M5.26611 12.0008C5.26611 11.1168 5.44022 10.2415 5.77849 9.42484C6.11677 8.60817 6.61259 7.86612 7.23765 7.24107C7.8627 6.61601 8.60475 6.12019 9.42142 5.78192C10.2381 5.44364 11.1134 5.26953 11.9974 5.26953C12.8813 5.26953 13.7566 5.44364 14.5733 5.78192C15.39 6.12019 16.132 6.61601 16.7571 7.24107C17.3821 7.86612 17.8779 8.60817 18.2162 9.42484C18.5545 10.2415 18.7286 11.1168 18.7286 12.0008V12.0008C18.7286 15.357 19.4317 17.307 20.0505 18.3758C20.1162 18.4896 20.1509 18.6187 20.151 18.7501C20.1511 18.8816 20.1167 19.0107 20.0511 19.1246C19.9856 19.2386 19.8913 19.3333 19.7777 19.3993C19.664 19.4653 19.535 19.5003 19.4036 19.5008H4.59111C4.45968 19.5003 4.33068 19.4653 4.21703 19.3993C4.10339 19.3333 4.00908 19.2386 3.94357 19.1246C3.87806 19.0107 3.84363 18.8816 3.84375 18.7501C3.84387 18.6187 3.87852 18.4896 3.94423 18.3758C4.56298 17.307 5.26611 15.357 5.26611 12.0008Z" stroke="#252C32" stroke-width="1.5" stroke-linecap="round" stroke-linejoin="round"/>
<path d="M9 19.5V20.25C9 21.0456 9.31607 21.8087 9.87868 22.3713C10.4413 22.9339 11.2044 23.25 12 23.25C12.7956 23.25 13.5587 22.9339 14.1213 22.3713C14.6839 21.8087 15 21.0456 15 20.25V19.5" stroke="#252C32" stroke-width="1.5" stroke-linecap="round" stroke-linejoin="round"/>
<path d="M17.1953 3.75C18.7224 4.71395 19.9548 6.07938 20.7578 7.69687" stroke="#252C32" stroke-width="1.5" stroke-linecap="round" stroke-linejoin="round"/>
<path d="M3.24219 7.69687C4.04518 6.07938 5.27764 4.71395 6.80469 3.75" stroke="#252C32" stroke-width="1.5" stroke-linecap="round" stroke-linejoin="round"/>
<circle cx="18" cy="7.5" r="5.9" fill="#EE5858" stroke="white" stroke-width="1.8"/>
</svg>
