<svg width="24" height="24" viewBox="0 0 24 24" fill="none" xmlns="http://www.w3.org/2000/svg">
<path d="M22.5656 11.4191L20.25 12.5722L17.25 6.83469L19.5938 5.66281C19.7679 5.57403 19.9701 5.55771 20.1563 5.61742C20.3425 5.67713 20.4975 5.80803 20.5875 5.98156L22.8937 10.3972C22.9405 10.4856 22.9691 10.5824 22.9779 10.682C22.9867 10.7817 22.9755 10.882 22.9449 10.9772C22.9143 11.0724 22.865 11.1606 22.7999 11.2365C22.7348 11.3123 22.6551 11.3744 22.5656 11.4191V11.4191Z" stroke="#252C32" stroke-width="1.5" stroke-linecap="round" stroke-linejoin="round"/>
<path d="M3.75375 12.4788L1.43812 11.3163C1.34896 11.2727 1.2695 11.2115 1.20446 11.1364C1.13941 11.0614 1.09012 10.9741 1.05951 10.8796C1.0289 10.7852 1.0176 10.6855 1.02627 10.5866C1.03494 10.4877 1.06342 10.3915 1.11 10.3038L3.41625 5.88822C3.50646 5.71482 3.66082 5.58348 3.84643 5.52219C4.03205 5.46091 4.23426 5.47451 4.41 5.5601L6.75375 6.73198L3.75375 12.4788Z" stroke="#252C32" stroke-width="1.5" stroke-linecap="round" stroke-linejoin="round"/>
<path d="M20.25 12.5703L18.75 14.3328L15.3 17.7828C15.206 17.8707 15.092 17.9346 14.968 17.9689C14.8439 18.0031 14.7133 18.0069 14.5875 17.9797L9.15 16.6203C9.05067 16.5926 8.95812 16.5448 8.87812 16.4797L3.75 12.4766" stroke="#252C32" stroke-width="1.5" stroke-linecap="round" stroke-linejoin="round"/>
<path d="M18.7467 14.3359L14.6217 11.3359L13.4217 12.2359C12.9018 12.624 12.2704 12.8336 11.6217 12.8336C10.9729 12.8336 10.3416 12.624 9.82167 12.2359L9.31542 11.8516C9.22981 11.7865 9.159 11.704 9.10768 11.6095C9.05636 11.515 9.02569 11.4106 9.01772 11.3034C9.00974 11.1961 9.02463 11.0884 9.06141 10.9874C9.09818 10.8863 9.156 10.7942 9.23104 10.7172L12.906 7.05157C12.9751 6.98287 13.057 6.92847 13.1471 6.89147C13.2372 6.85447 13.3337 6.8356 13.431 6.83594H17.2467" stroke="#252C32" stroke-width="1.5" stroke-linecap="round" stroke-linejoin="round"/>
<path d="M6.80469 6.73218L11.6141 5.32593C11.785 5.27693 11.9677 5.29022 12.1297 5.36343L15.3734 6.83531" stroke="#252C32" stroke-width="1.5" stroke-linecap="round" stroke-linejoin="round"/>
<path d="M10.5 19.9594L7.67813 19.2469C7.56313 19.2209 7.45666 19.166 7.36875 19.0875L5.25 17.25" stroke="#252C32" stroke-width="1.5" stroke-linecap="round" stroke-linejoin="round"/>
</svg>
