<svg width="24" height="24" viewBox="0 0 24 24" fill="none" xmlns="http://www.w3.org/2000/svg">
<g clip-path="url(#clip0_3364_7108)">
<path d="M12.0651 7.33203C9.4651 7.33203 7.39844 9.3987 7.39844 11.9987C7.39844 14.5987 9.4651 16.6654 12.0651 16.6654C14.6651 16.6654 16.7318 14.5987 16.7318 11.9987C16.7318 9.3987 14.6651 7.33203 12.0651 7.33203ZM12.0651 15.332C10.1984 15.332 8.73177 13.8654 8.73177 11.9987C8.73177 10.132 10.1984 8.66536 12.0651 8.66536C13.9318 8.66536 15.3984 10.132 15.3984 11.9987C15.3984 13.8654 13.9318 15.332 12.0651 15.332Z" fill="#252C32"/>
<path d="M21.8693 9.7987L20.0026 9.1987L19.6026 8.1987L20.5359 6.46536C20.7359 6.06536 20.6693 5.53203 20.3359 5.1987L18.7359 3.5987C18.4026 3.26536 17.8693 3.1987 17.4693 3.3987L15.7359 4.33203L14.7359 3.93203L14.1359 2.06536C14.0026 1.66536 13.6026 1.33203 13.1359 1.33203H10.8693C10.4026 1.33203 10.0026 1.66536 9.93594 2.13203L9.33594 3.9987C8.93594 4.06536 8.6026 4.1987 8.26927 4.3987L6.53594 3.46536C6.13594 3.26536 5.6026 3.33203 5.26927 3.66536L3.66927 5.26536C3.33594 5.5987 3.26927 6.13203 3.46927 6.53203L4.33594 8.1987C4.2026 8.53203 4.06927 8.93203 3.93594 9.26536L2.06927 9.86537C1.66927 9.9987 1.33594 10.3987 1.33594 10.8654V13.132C1.33594 13.5987 1.66927 13.9987 2.13594 14.132L4.0026 14.732L4.4026 15.732L3.46927 17.4654C3.26927 17.8654 3.33594 18.3987 3.66927 18.732L5.26927 20.332C5.6026 20.6654 6.13594 20.732 6.53594 20.532L8.26927 19.5987L9.26927 19.9987L9.86927 21.932C10.0026 22.332 10.4026 22.6654 10.8693 22.6654H13.1359C13.6026 22.6654 14.0026 22.332 14.1359 21.932L14.7359 19.9987L15.7359 19.5987L17.4693 20.532C17.8693 20.732 18.4026 20.6654 18.7359 20.332L20.3359 18.732C20.6693 18.3987 20.7359 17.8654 20.5359 17.4654L19.6026 15.732L20.0026 14.732L21.9359 14.132C22.3359 13.9987 22.6693 13.5987 22.6693 13.132V10.8654C22.6693 10.3987 22.3359 9.93203 21.8693 9.7987ZM21.3359 12.932L18.9359 13.6654L18.8693 13.9987L18.2693 15.3987L18.0693 15.732L19.2693 17.932L17.9359 19.2654L15.7359 18.0654L15.4026 18.2654C14.9359 18.532 14.4693 18.732 14.0026 18.8654L13.6693 18.932L12.9359 21.332H11.0693L10.3359 18.932L10.0026 18.8654L8.6026 18.2654L8.26927 18.0654L6.06927 19.2654L4.73594 17.932L5.93594 15.732L5.73594 15.3987C5.46927 14.932 5.26927 14.4654 5.13594 13.9987L5.06927 13.6654L2.66927 12.932V11.0654L4.93594 10.3987L5.06927 10.0654C5.2026 9.53203 5.4026 9.06536 5.66927 8.5987L5.86927 8.26536L4.73594 6.06536L6.06927 4.73203L8.2026 5.93203L8.53594 5.73203C9.0026 5.46536 9.46927 5.26536 10.0026 5.13203L10.3359 4.9987L11.0693 2.66536H12.9359L13.6693 4.9987L14.0026 5.13203C14.4693 5.26536 14.9359 5.46536 15.4026 5.73203L15.7359 5.93203L17.9359 4.73203L19.2693 6.06536L18.0693 8.26536L18.2693 8.5987C18.5359 9.06536 18.7359 9.53203 18.8693 9.9987L18.9359 10.332L21.3359 11.0654V12.932Z" fill="#252C32"/>
</g>
<defs>
<clipPath id="clip0_3364_7108">
<rect width="24" height="24" fill="white"/>
</clipPath>
</defs>
</svg>
