<svg width="10" height="10" viewBox="0 0 10 10" fill="none" xmlns="http://www.w3.org/2000/svg">
<path d="M9.53245 2.1875V4.6875C9.53245 4.81182 9.48307 4.93105 9.39516 5.01896C9.30725 5.10686 9.18803 5.15625 9.0637 5.15625C8.93938 5.15625 8.82016 5.10686 8.73225 5.01896C8.64434 4.93105 8.59495 4.81182 8.59495 4.6875V3.32031L5.64534 6.27031C5.6018 6.31401 5.55005 6.34869 5.49307 6.37235C5.4361 6.396 5.37501 6.40818 5.31331 6.40818C5.25162 6.40818 5.19053 6.396 5.13355 6.37235C5.07658 6.34869 5.02483 6.31401 4.98128 6.27031L3.7512 5.03906L1.27034 7.51914C1.18228 7.6072 1.06285 7.65667 0.938313 7.65667C0.813777 7.65667 0.694342 7.6072 0.606282 7.51914C0.518222 7.43108 0.46875 7.31165 0.46875 7.18711C0.46875 7.06257 0.518222 6.94314 0.606282 6.85508L3.41878 4.04258C3.46233 3.99888 3.51408 3.9642 3.57105 3.94055C3.62803 3.91689 3.68912 3.90471 3.75081 3.90471C3.81251 3.90471 3.87359 3.91689 3.93057 3.94055C3.98755 3.9642 4.0393 3.99888 4.08284 4.04258L5.3137 5.27344L7.93089 2.65625H6.5637C6.43938 2.65625 6.32016 2.60686 6.23225 2.51896C6.14434 2.43105 6.09495 2.31182 6.09495 2.1875C6.09495 2.06318 6.14434 1.94395 6.23225 1.85604C6.32016 1.76814 6.43938 1.71875 6.5637 1.71875H9.0637C9.18803 1.71875 9.30725 1.76814 9.39516 1.85604C9.48307 1.94395 9.53245 2.06318 9.53245 2.1875Z" fill="#2BBFAE"/>
</svg>
